<svg width="60" height="60" viewBox="0 0 60 60" fill="none" xmlns="http://www.w3.org/2000/svg">
<rect width="60" height="60" fill="black"/>
<path d="M59 0H0.999961C0.446953 0 0 0.448008 0 0.999961V58.9999C0 59.552 0.446953 60 0.999961 60H58.9999C59.5529 60 59.9999 59.552 59.9999 59V0.999961C60 0.448008 59.553 0 59 0ZM34 46C34 50.9619 29.963 55 25 55C20.037 55 16 50.9619 16 46C16 45.448 16.4469 45 16.9999 45C17.5529 45 17.9999 45.448 17.9999 46C17.9999 49.86 21.1409 52.9999 24.9998 52.9999C28.8588 52.9999 31.9998 49.8599 31.9998 46V22C31.9998 21.448 32.4468 21 32.9998 21C33.5528 21 33.9997 21.448 33.9997 22V46H34ZM46 37C50.963 37 55 41.038 55 46C55 50.9619 50.963 55 46 55C41.037 55 37 50.9619 37 46C37 45.448 37.4469 45 37.9999 45C38.5529 45 38.9999 45.448 38.9999 46C38.9999 49.86 42.1409 52.9999 45.9998 52.9999C49.8588 52.9999 52.9998 49.8599 52.9998 46C52.9998 42.1399 49.8588 39 45.9998 39C41.0368 39 36.9998 34.962 36.9998 30C36.9998 25.038 41.0368 21 45.9998 21C50.9629 21 54.9998 25.038 54.9998 30C54.9998 30.552 54.5529 31 53.9999 31C53.4469 31 52.9999 30.552 52.9999 30C52.9999 26.14 49.8589 23 46 23C42.141 23 39 26.1401 39 30C39 33.8599 42.141 37 46 37Z" fill="#FFCC00"/>
</svg>
