<svg width="71" height="70" viewBox="0 0 71 70" fill="none" xmlns="http://www.w3.org/2000/svg">
<path d="M66.5951 33.5809C66.1825 33.1092 60.4247 25.9073 59.4126 24.689C58.4009 23.4705 57.8997 23.6865 57.2806 23.775C56.6518 23.8635 49.371 25.0916 48.5264 25.2293C47.6812 25.3767 47.1506 25.7107 47.6715 26.4377C48.1331 27.0862 52.918 33.8756 53.9794 35.369L34.9472 39.928L19.7965 14.6274C19.197 13.7334 19.0695 13.4191 17.6938 13.4877C16.3183 13.5467 5.81487 14.4211 5.06797 14.49C4.32135 14.5489 3.49598 14.8831 4.24274 16.6515C4.9895 18.4203 16.9175 44.1237 17.2517 44.8702C17.5857 45.6169 18.4503 46.8355 20.4743 46.3441C22.5475 45.843 29.7397 43.9662 33.6699 42.9346C35.743 46.6975 39.9781 54.3222 40.7639 55.4129C41.8055 56.8769 42.5326 56.6315 44.1341 56.1402C45.3918 55.7568 63.7455 49.1538 64.571 48.8201C65.3962 48.476 65.9071 48.2401 65.3471 47.4051C64.9345 46.796 60.0907 40.3109 57.5558 36.9115C59.295 36.4498 65.475 34.8089 66.1333 34.6221C66.9097 34.4258 67.0178 34.0524 66.5951 33.5809ZM31.9901 40.6551C31.764 40.7042 21.1033 43.2589 20.5335 43.3866C19.9635 43.5146 19.9635 43.4555 19.8947 43.2589C19.8261 43.0623 7.21993 17.0544 7.04301 16.7301C6.86623 16.4057 6.87594 16.1503 7.04301 16.1503C7.21022 16.1503 17.1143 15.2662 17.4581 15.2463C17.8118 15.2268 17.7724 15.3054 17.9003 15.5214C17.9003 15.5214 31.8718 39.633 32.1078 40.0559C32.3632 40.4783 32.2159 40.6059 31.9901 40.6551ZM62.0559 46.2952C62.2228 46.5603 62.3997 46.7369 61.8593 46.9239C61.3286 47.1205 43.8098 53.0257 43.4758 53.1727C43.1318 53.3201 42.8666 53.3693 42.4344 52.7308C42.0021 52.092 36.3032 42.2372 36.3032 42.2372L54.8538 37.4128C55.3157 37.2654 55.4631 37.167 55.7577 37.6288C56.0426 38.1005 61.8887 46.0298 62.0559 46.2952ZM63.2448 33.1192C62.8319 33.2075 56.0131 34.8975 56.0131 34.8975L50.4421 27.2531C50.2851 27.0273 50.1571 26.811 50.5502 26.7618C50.9431 26.7128 57.2706 25.5633 57.5558 25.5042C57.8403 25.4353 58.086 25.3568 58.44 25.8382C58.7938 26.3196 63.6082 32.4212 63.7948 32.6572C63.9717 32.8832 63.6574 33.0207 63.2448 33.1192Z" fill="#F35045"/>
</svg>
