<svg width="113" height="70" viewBox="0 0 113 70" fill="none" xmlns="http://www.w3.org/2000/svg">
<path d="M55.6926 68.7809C55.3327 68.7809 54.9749 68.687 54.6599 68.5047L51.3721 66.5594C50.8813 66.2846 51.1212 66.1875 51.2828 66.1311C51.9377 65.9038 52.0703 65.8513 52.7694 65.455C52.8421 65.4141 52.9387 65.4296 53.0139 65.4737L55.5395 66.9733C55.6312 67.0241 55.7604 67.0241 55.8444 66.9733L65.6913 61.29C65.783 61.2377 65.8416 61.1322 65.8416 61.0235V49.6601C65.8416 49.549 65.7827 49.4452 65.6888 49.3887L55.8462 43.7104C55.7555 43.6571 55.6344 43.6571 55.5427 43.7104L45.7026 49.3905C45.6069 49.4452 45.5463 49.5524 45.5463 49.6601V61.0235C45.5463 61.1322 45.6067 61.2353 45.7016 61.2868L48.399 62.8453C49.8626 63.577 50.7586 62.7151 50.7586 61.8492V50.6295C50.7586 50.471 50.8863 50.3458 51.0447 50.3458H52.2934C52.4497 50.3458 52.5788 50.471 52.5788 50.6295V61.8492C52.5788 63.8026 51.515 64.9228 49.6632 64.9228C49.0941 64.9228 48.646 64.9228 47.3951 64.3064L44.813 62.8199C44.1754 62.4511 43.7803 61.7617 43.7803 61.0235V49.6601C43.7803 48.9219 44.1751 48.2325 44.813 47.8655L54.6599 42.1755C55.283 41.8231 56.1111 41.8231 56.7293 42.1755L66.5754 47.8655C67.213 48.2342 67.6096 48.9219 67.6096 49.6601V61.0235C67.6096 61.7617 67.213 62.4487 66.5754 62.8199L56.7293 68.5049C56.4145 68.687 56.0574 68.7809 55.6926 68.7809Z" fill="#699F63"/>
<path d="M58.7342 60.9523C54.4253 60.9523 53.5227 58.9746 53.5227 57.3155C53.5227 57.1578 53.6494 57.0318 53.8074 57.0318H55.0804C55.2227 57.0318 55.3412 57.1341 55.3634 57.2731C55.5557 58.5691 56.1287 59.2233 58.7345 59.2233C60.8089 59.2233 61.692 58.754 61.692 57.6534C61.692 57.019 61.4418 56.548 58.2179 56.2322C55.5239 55.9658 53.8574 55.3705 53.8574 53.2151C53.8574 51.2282 55.532 50.0434 58.3399 50.0434C61.4943 50.0434 63.0553 51.1383 63.2529 53.4872C63.2603 53.568 63.2317 53.6459 63.1778 53.7063C63.1238 53.7628 63.0486 53.797 62.9692 53.797H61.6912C61.5589 53.797 61.4418 53.7031 61.415 53.5747C61.1083 52.2109 60.3627 51.7752 58.3399 51.7752C56.075 51.7752 55.8118 52.5641 55.8118 53.1552C55.8118 53.8715 56.1226 54.08 59.1804 54.4847C62.2064 54.8845 63.6439 55.4511 63.6439 57.5778C63.6434 59.7234 61.8544 60.9523 58.7342 60.9523Z" fill="#699F63"/>
<path d="M72.9329 49.0348C72.9329 50.0789 72.0793 50.9324 71.0352 50.9324C70.0007 50.9324 69.1376 50.089 69.1376 49.0348C69.1376 47.9604 70.0214 47.1367 71.0352 47.1367C72.0596 47.1367 72.9329 47.9604 72.9329 49.0348ZM69.4439 49.0294C69.4439 49.9132 70.1568 50.6263 71.03 50.6263C71.9139 50.6263 72.627 49.8982 72.627 49.0294C72.627 48.146 71.9043 47.443 71.03 47.443C70.1666 47.4433 69.4439 48.1356 69.4439 49.0294ZM70.3222 47.9702H71.0557C71.3066 47.9702 71.7988 47.9702 71.7988 48.5327C71.7988 48.9244 71.5479 49.0045 71.3965 49.0548C71.6884 49.075 71.7081 49.2657 71.748 49.5369C71.7685 49.7074 71.7988 49.9988 71.8585 50.0991H71.4072C71.3966 49.999 71.3263 49.4565 71.3263 49.4267C71.297 49.3059 71.2561 49.246 71.1057 49.246H70.7345V50.0991H70.3224V47.9702H70.3222ZM70.7244 48.9039H71.0554C71.3261 48.9039 71.3768 48.7134 71.3768 48.603C71.3768 48.3114 71.1757 48.3114 71.0653 48.3114H70.7244V48.9039Z" fill="#699F63"/>
<path d="M25.2007 24.3218C25.2007 23.8681 24.9619 23.451 24.5703 23.2262L14.1306 17.2183C13.9542 17.1145 13.7562 17.0606 13.5559 17.0522C13.5379 17.0522 13.4627 17.0522 13.4479 17.0522C13.2485 17.0603 13.0506 17.1143 12.8714 17.2183L2.43177 23.2262C2.04258 23.451 1.80054 23.8681 1.80054 24.3218L1.82346 40.4995C1.82346 40.7243 1.94029 40.9338 2.13821 41.0439C2.33195 41.16 2.57152 41.16 2.76452 41.0439L8.96888 37.4912C9.36128 37.2583 9.60012 36.8469 9.60012 36.3973V28.839C9.60012 28.3885 9.83871 27.9714 10.2296 27.7476L12.8714 26.2261C13.0683 26.1125 13.2835 26.0568 13.5034 26.0568C13.7183 26.0568 13.9391 26.1125 14.1304 26.2261L16.7714 27.7476C17.1623 27.9717 17.4019 28.3887 17.4019 28.839V36.3973C17.4019 36.8469 17.644 37.2607 18.0339 37.4912L24.2365 41.0439C24.431 41.16 24.674 41.16 24.867 41.0439C25.0593 40.9335 25.1803 40.7243 25.1803 40.4995L25.2007 24.3218Z" fill="#333333"/>
<path d="M75.4324 2.08304C75.2369 1.97434 74.9986 1.97681 74.8056 2.08994C74.6131 2.20332 74.4945 2.41012 74.4945 2.63367V18.6548C74.4945 18.8123 74.4102 18.9582 74.2742 19.0371C74.1376 19.116 73.9693 19.116 73.8325 19.0371L71.2179 17.5306C70.8277 17.3058 70.3478 17.3063 69.9579 17.5311L59.514 23.5583C59.1236 23.7835 58.8833 24.1998 58.8833 24.6502V36.7069C58.8833 37.1575 59.1236 37.5735 59.5138 37.7993L69.9571 43.8309C70.3475 44.0562 70.8282 44.0562 71.2186 43.8309L81.6634 37.7993C82.0536 37.5738 82.2939 37.1575 82.2939 36.7069V6.65227C82.2939 6.19529 82.0467 5.77357 81.6471 5.55075L75.4324 2.08304ZM74.4635 32.7455C74.4635 32.8579 74.4033 32.9622 74.3057 33.0181L70.72 35.0851C70.6226 35.141 70.5026 35.141 70.4052 35.0851L66.8194 33.0181C66.7218 32.9622 66.6617 32.8579 66.6617 32.7455V28.6049C66.6617 28.4925 66.7218 28.3883 66.8192 28.3318L70.405 26.2607C70.5026 26.2042 70.6229 26.2042 70.7205 26.2607L74.3062 28.3318C74.4036 28.3883 74.4637 28.4925 74.4637 28.6049L74.4635 32.7455Z" fill="#333333"/>
<path d="M110.208 28.4967C110.597 28.2711 110.836 27.8556 110.836 27.4063V24.4845C110.836 24.0352 110.597 23.6194 110.208 23.3938L99.8314 17.3691C99.4409 17.1421 98.9588 17.1419 98.5677 17.3674L88.1278 23.3946C87.7376 23.6198 87.4973 24.0359 87.4973 24.4865V36.54C87.4973 36.9933 87.7406 37.4116 88.1342 37.6356L98.5092 43.5474C98.8918 43.7658 99.3608 43.7683 99.7458 43.5543L106.021 40.0664C106.22 39.9557 106.344 39.7467 106.345 39.5195C106.347 39.2922 106.226 39.0817 106.029 38.9683L95.5227 32.9382C95.3265 32.8258 95.2059 32.6168 95.2059 32.391V28.6135C95.2059 28.3882 95.326 28.1797 95.5214 28.0673L98.7912 26.1822C98.9857 26.0698 99.2263 26.0698 99.4207 26.1822L102.692 28.0673C102.888 28.1797 103.008 28.3882 103.008 28.6135V31.5855C103.008 31.8113 103.129 32.0198 103.324 32.1322C103.519 32.2451 103.76 32.2441 103.955 32.131L110.208 28.4967Z" fill="#333333"/>
<path d="M99.0455 27.932C99.1205 27.8886 99.2127 27.8886 99.2876 27.932L101.291 29.088C101.366 29.1314 101.412 29.211 101.412 29.2978V31.6117C101.412 31.6985 101.366 31.7781 101.291 31.8214L99.2876 32.9774C99.2127 33.0208 99.1205 33.0208 99.0455 32.9774L97.0431 31.8214C96.9682 31.7781 96.9221 31.6985 96.9221 31.6117V29.2978C96.9221 29.211 96.9682 29.1314 97.0431 29.088L99.0455 27.932Z" fill="#699F63"/>
<path d="M42.6704 17.4303C42.2825 17.2063 41.8043 17.2063 41.4166 17.4303L31.0315 23.4232C30.643 23.6472 30.4039 24.0611 30.4039 24.5097V36.5048C30.4039 36.9529 30.643 37.3667 31.031 37.5913L41.4161 43.5891C41.8043 43.8132 42.2825 43.8132 42.6709 43.5891L53.0536 37.5913C53.4416 37.367 53.6804 36.9529 53.6804 36.5048V24.5092C53.6804 24.0611 53.4413 23.6472 53.0531 23.4232L42.6704 17.4303Z" fill="url(#paint0_linear)"/>
<path d="M53.0735 23.4232L42.6593 17.4303C42.5565 17.3709 42.4466 17.3285 42.3335 17.3006L30.6405 37.3029C30.7413 37.4163 30.8594 37.5151 30.9905 37.591L41.4222 43.5888C41.7178 43.7594 42.069 43.7993 42.3911 43.7101L53.3528 23.6378C53.2695 23.5555 53.1761 23.4823 53.0735 23.4232Z" fill="url(#paint1_linear)"/>
<path d="M41.0701 15.2273L40.9271 15.3088H41.1179L41.0701 15.2273Z" fill="url(#paint2_linear)"/>
<path d="M53.0795 37.5913C53.3821 37.4163 53.6079 37.1252 53.6934 36.7932L42.2773 17.2898C41.9793 17.2304 41.6631 17.2755 41.3946 17.4305L31.0504 23.3874L42.225 43.7451C42.3845 43.7234 42.5408 43.6716 42.6837 43.5893L53.0795 37.5913Z" fill="url(#paint3_linear)"/>
<path d="M54.0477 37.3983L53.9789 37.2807V37.4382L54.0477 37.3983Z" fill="url(#paint4_linear)"/>
<path d="M53.0795 37.5913L42.6838 43.5891C42.5408 43.6717 42.3846 43.7232 42.2251 43.7449L42.4321 44.122L53.9789 37.4382V37.2807L53.6935 36.7932C53.608 37.1252 53.3822 37.416 53.0795 37.5913Z" fill="url(#paint5_linear)"/>
<path d="M53.0795 37.5913L42.6838 43.5891C42.5408 43.6717 42.3846 43.7232 42.2251 43.7449L42.4321 44.122L53.9789 37.4382V37.2807L53.6935 36.7932C53.608 37.1252 53.3822 37.416 53.0795 37.5913Z" fill="url(#paint6_linear)"/>
<defs>
<linearGradient id="paint0_linear" x1="46.2646" y1="21.8935" x2="36.8824" y2="41.0331" gradientUnits="userSpaceOnUse">
<stop stop-color="#41873F"/>
<stop offset="0.3288" stop-color="#418B3D"/>
<stop offset="0.6352" stop-color="#419637"/>
<stop offset="0.9319" stop-color="#3FA92D"/>
<stop offset="1" stop-color="#3FAE2A"/>
</linearGradient>
<linearGradient id="paint1_linear" x1="40.4613" y1="31.9099" x2="66.787" y2="12.4591" gradientUnits="userSpaceOnUse">
<stop offset="0.1376" stop-color="#41873F"/>
<stop offset="0.4032" stop-color="#54A044"/>
<stop offset="0.7136" stop-color="#66B848"/>
<stop offset="0.9081" stop-color="#6CC04A"/>
</linearGradient>
<linearGradient id="paint2_linear" x1="30.0366" y1="15.2681" x2="54.0476" y2="15.2681" gradientUnits="userSpaceOnUse">
<stop offset="0.0919" stop-color="#6CC04A"/>
<stop offset="0.2864" stop-color="#66B848"/>
<stop offset="0.5968" stop-color="#54A044"/>
<stop offset="0.8624" stop-color="#41873F"/>
</linearGradient>
<linearGradient id="paint3_linear" x1="30.0365" y1="30.5048" x2="54.0477" y2="30.5048" gradientUnits="userSpaceOnUse">
<stop offset="0.0919" stop-color="#6CC04A"/>
<stop offset="0.2864" stop-color="#66B848"/>
<stop offset="0.5968" stop-color="#54A044"/>
<stop offset="0.8624" stop-color="#41873F"/>
</linearGradient>
<linearGradient id="paint4_linear" x1="30.0352" y1="37.3595" x2="54.0477" y2="37.3595" gradientUnits="userSpaceOnUse">
<stop offset="0.0919" stop-color="#6CC04A"/>
<stop offset="0.2864" stop-color="#66B848"/>
<stop offset="0.5968" stop-color="#54A044"/>
<stop offset="0.8624" stop-color="#41873F"/>
</linearGradient>
<linearGradient id="paint5_linear" x1="30.0365" y1="40.4576" x2="54.0478" y2="40.4576" gradientUnits="userSpaceOnUse">
<stop offset="0.0919" stop-color="#6CC04A"/>
<stop offset="0.2864" stop-color="#66B848"/>
<stop offset="0.5968" stop-color="#54A044"/>
<stop offset="0.8624" stop-color="#41873F"/>
</linearGradient>
<linearGradient id="paint6_linear" x1="57.5459" y1="21.326" x2="42.7373" y2="51.5355" gradientUnits="userSpaceOnUse">
<stop stop-color="#41873F"/>
<stop offset="0.3288" stop-color="#418B3D"/>
<stop offset="0.6352" stop-color="#419637"/>
<stop offset="0.9319" stop-color="#3FA92D"/>
<stop offset="1" stop-color="#3FAE2A"/>
</linearGradient>
</defs>
</svg>
