<svg width="71" height="70" viewBox="0 0 71 70" fill="none" xmlns="http://www.w3.org/2000/svg">
<g clip-path="url(#clip0)">
<path d="M35.3943 70C54.7243 70 70.3943 54.33 70.3943 35C70.3943 15.67 54.7243 0 35.3943 0C16.0643 0 0.394287 15.67 0.394287 35C0.394287 54.33 16.0643 70 35.3943 70Z" fill="#8892BE"/>
<path d="M22.283 31.541C23.6501 31.541 24.5525 31.7871 25.0173 32.293C25.4685 32.7988 25.5779 33.6602 25.3455 34.8906C25.0994 36.1621 24.6208 37.0781 23.9099 37.625C23.199 38.1719 22.1189 38.4453 20.6697 38.4453H18.4822L19.822 31.541H22.283ZM13.5193 45.4453H17.115L17.9626 41.0566H21.0388C22.3923 41.0566 23.5134 40.9199 24.3884 40.6328C25.2634 40.3457 26.0701 39.8672 26.781 39.1973C27.3826 38.6367 27.8748 38.0352 28.2439 37.3652C28.613 36.6953 28.8865 35.957 29.0369 35.1504C29.4197 33.1953 29.1326 31.6641 28.1755 30.584C27.2185 29.5039 25.7009 28.9434 23.6228 28.9434H16.7048L13.5193 45.4453Z" fill="white"/>
<path d="M31.6892 24.5547H35.2576L34.4099 28.9434H37.5818C39.5779 28.9434 40.9587 29.2988 41.7244 29.9961C42.49 30.6934 42.7087 31.8281 42.408 33.3867L40.9177 41.0703H37.2947L38.7165 33.7695C38.8806 32.9355 38.8123 32.375 38.5388 32.0742C38.2517 31.7734 37.6638 31.623 36.7478 31.623H33.8904L32.0584 41.0703H28.49L31.6892 24.5547Z" fill="white"/>
<path d="M50.3376 31.541C51.7048 31.541 52.6072 31.7871 53.072 32.293C53.5232 32.7988 53.6326 33.6602 53.4001 34.8906C53.154 36.1621 52.6755 37.0781 51.9646 37.625C51.2537 38.1719 50.1736 38.4453 48.7244 38.4453H46.5369L47.8767 31.541H50.3376ZM41.574 45.4453H45.1697L46.0173 41.0566H49.0935C50.447 41.0566 51.5681 40.9199 52.4431 40.6328C53.3181 40.3457 54.1111 39.8672 54.8357 39.1973C55.4372 38.6367 55.9294 38.0352 56.2986 37.3652C56.6677 36.6953 56.9412 35.957 57.0915 35.1504C57.4744 33.1953 57.1872 31.6641 56.2302 30.584C55.2732 29.4902 53.7556 28.9434 51.6775 28.9434H44.7595L41.574 45.4453Z" fill="white"/>
</g>
<defs>
<clipPath id="clip0">
<rect width="70" height="70" fill="white" transform="translate(0.394287)"/>
</clipPath>
</defs>
</svg>
