<svg width="71" height="70" viewBox="0 0 71 70" fill="none" xmlns="http://www.w3.org/2000/svg">
<path d="M35.3359 40.81C38.5705 40.81 41.1926 38.1879 41.1926 34.9533C41.1926 31.7188 38.5705 29.0966 35.3359 29.0966C32.1014 29.0966 29.4792 31.7188 29.4792 34.9533C29.4792 38.1879 32.1014 40.81 35.3359 40.81Z" fill="#00D8FF"/>
<path d="M35.3359 48.37C27.1109 48.37 19.9243 47.4017 14.5459 45.5583C11.0576 44.3683 8.09428 42.7817 5.98261 40.9733C3.74261 39.06 2.55261 36.9717 2.55261 34.9533C2.55261 31.08 6.79928 27.2883 13.9276 24.815C19.7609 22.785 27.3676 21.6533 35.3243 21.6533C43.1409 21.6533 50.6426 22.75 56.4409 24.7567C59.8359 25.9233 62.6943 27.44 64.7243 29.12C66.9293 30.9633 68.0959 32.9817 68.0959 34.9533C68.0959 38.9783 63.3476 43.05 55.6943 45.5817C50.2809 47.3783 43.0476 48.37 35.3359 48.37ZM35.3359 24.4533C27.7876 24.4533 20.3209 25.55 14.8609 27.4517C8.30428 29.7383 5.36428 32.865 5.36428 34.9533C5.36428 37.1233 8.52595 40.5417 15.4559 42.91C20.5426 44.6483 27.4259 45.57 35.3359 45.57C42.7559 45.57 49.6743 44.6367 54.8193 42.9217C62.0176 40.53 65.3076 37.1117 65.3076 34.9533C65.3076 33.845 64.4676 32.5383 62.9393 31.2667C61.1776 29.7967 58.611 28.455 55.5426 27.3933C50.0243 25.5033 42.8493 24.4533 35.3359 24.4533Z" fill="#00D8FF"/>
<path d="M22.0476 64.1433C20.8576 64.1433 19.8076 63.8867 18.9209 63.3733C15.5726 61.4367 14.4059 55.86 15.8176 48.4517C16.9726 42.3733 19.7959 35.2333 23.7742 28.3383C27.6826 21.5717 32.3726 15.6217 37.0042 11.5967C39.7109 9.24001 42.4526 7.51334 44.9259 6.60334C47.6209 5.61167 49.9542 5.61167 51.6576 6.59167C55.1459 8.59834 56.3009 14.7583 54.6676 22.645C53.5126 28.245 50.7592 35 46.9092 41.685C42.8026 48.8017 38.3692 54.5417 34.0876 58.2867C31.3109 60.7133 28.4526 62.4867 25.8392 63.4083C24.4742 63.8983 23.1909 64.1433 22.0476 64.1433ZM24.9759 29.0383L26.1892 29.7383C22.4209 36.2717 19.6326 43.2833 18.5592 48.9767C17.2642 55.8017 18.5126 59.9083 20.3092 60.9467C20.7526 61.2034 21.3359 61.3433 22.0476 61.3433C24.3692 61.3433 28.0209 59.8733 32.2442 56.1867C36.2926 52.6517 40.5276 47.145 44.4826 40.2967C48.1926 33.8683 50.8292 27.405 51.9259 22.0967C53.4542 14.665 52.1359 10.115 50.2576 9.03001C49.3009 8.48167 47.7492 8.55167 45.8826 9.24001C43.7242 10.0333 41.2859 11.585 38.8359 13.72C34.4376 17.5467 29.9459 23.24 26.1892 29.75L24.9759 29.0383Z" fill="#00D8FF"/>
<path d="M48.6243 64.1783C45.451 64.1783 41.426 62.265 37.226 58.6483C32.536 54.6117 27.7643 48.6033 23.7743 41.7083C19.8543 34.9417 17.0543 27.9067 15.876 21.875C15.1877 18.3517 15.0593 15.12 15.5027 12.5183C15.9927 9.68334 17.1477 7.66501 18.8627 6.67334C22.3393 4.65501 28.2543 6.73167 34.2743 12.0867C38.5443 15.8783 43.0243 21.6417 46.886 28.315C51.0043 35.4317 53.7693 42.14 54.866 47.7167C55.5777 51.3333 55.6943 54.6933 55.1927 57.4233C54.656 60.3283 53.4427 62.3933 51.6927 63.4083C50.8177 63.9217 49.7793 64.1783 48.6243 64.1783ZM26.201 40.3083C29.981 46.8417 34.671 52.7567 39.0577 56.525C44.3193 61.0517 48.496 62.0317 50.3043 60.9817C52.1827 59.8967 53.5593 55.4517 52.136 48.265C51.086 42.9917 48.4377 36.575 44.471 29.7267C40.7493 23.2983 36.4677 17.78 32.4193 14.1867C26.7493 9.14667 22.1527 8.01501 20.2743 9.10001C19.3177 9.64834 18.606 11.0367 18.2677 12.9967C17.8827 15.26 17.9993 18.1533 18.6293 21.3383C19.7493 27.0667 22.4327 33.7983 26.201 40.3083Z" fill="#00D8FF"/>
</svg>
